<svg width="97" height="42" viewBox="0 0 97 42" fill="none" xmlns="http://www.w3.org/2000/svg">
<path d="M28.8482 33.6641H29.8467C29.8453 34.1572 29.9129 37.9458 29.7939 38.0906L29.6132 38.109C29.2669 38.096 28.9174 38.1069 28.5709 38.109C28.5155 37.0448 28.4655 34.7656 28.5823 33.7501C28.6709 33.6634 28.7257 33.6772 28.8482 33.6641Z" fill="black"/>
<path d="M55.5988 33.6641H56.8922C56.9059 33.6956 56.998 37.9138 56.8922 38.109C56.6042 38.235 55.926 38.1273 55.5988 38.109C55.6707 37.945 55.607 34.1348 55.5988 33.6641Z" fill="black"/>
<path d="M23.0137 33.6641H24.0679C24.0631 34.8461 24.0539 36.0287 24.0679 37.2106C24.7226 37.1638 25.3829 37.1947 26.0386 37.2106C26.0341 37.4575 26.1114 37.8668 25.991 38.0826L25.8507 38.109H22.7945C22.794 37.5573 22.7119 33.9185 22.8366 33.6945L23.0137 33.6641Z" fill="black"/>
<path d="M18.7303 33.6641H19.8862V37.2106H21.9313C21.937 37.4314 22.0014 37.9054 21.876 38.0871L21.7543 38.109H18.5806C18.5547 37.5261 18.5146 34.0288 18.612 33.7035L18.7303 33.6641Z" fill="black"/>
<path d="M41.6832 33.6641H42.7942C42.916 33.9206 42.9089 36.965 42.7942 37.2106C43.5245 37.2627 44.2694 37.227 45.001 37.2106C45.1252 37.4082 45.1328 37.9188 44.9979 38.088L44.7842 38.109H41.5178C41.5167 37.4926 41.4324 34.0128 41.5561 33.7009L41.6832 33.6641Z" fill="black"/>
<path d="M38.2276 33.6634C39.1024 33.4197 40.0587 33.6966 40.565 34.4389V35.1725C40.2719 35.1783 39.6228 35.2607 39.3697 35.1441C38.9929 34.9703 39.5701 33.9214 37.9903 34.5799C37.9675 35.1355 37.8481 36.7666 38.1874 37.1708C38.5519 37.6049 39.2674 37.3792 39.304 36.6269C39.7192 36.5961 40.1483 36.6223 40.565 36.6269C40.5342 38.8557 36.875 38.6392 36.7521 36.8598C36.6398 35.2337 36.3126 33.7767 38.2276 33.6634Z" fill="black"/>
<path d="M61.6251 33.6641H62.9011C62.946 33.9389 62.6641 34.4196 62.4551 34.5805C62.4657 34.9235 61.0426 37.8718 60.7721 38.109C60.3918 38.1959 59.8906 38.1319 59.4981 38.109C59.5653 37.8627 57.7103 34.2599 57.4937 33.6641H58.7877C58.997 34.0985 60.1865 36.5726 60.1284 36.8949C60.2963 36.7008 61.6081 33.9006 61.6251 33.6641Z" fill="black"/>
<path d="M63.4175 33.6637C64.5039 33.6356 65.5962 33.6602 66.6832 33.6637C66.7723 33.9309 66.7811 34.3151 66.6832 34.5802H64.6749C64.8215 34.7814 64.7996 35.2673 64.6749 35.4606H66.3785C66.5286 35.6745 66.4847 36.0728 66.3785 36.2942C65.8444 36.3011 64.9331 36.0474 64.6749 36.6272C64.7991 36.8179 64.7747 37.0123 64.6749 37.2103C65.3465 37.1791 66.0113 37.1926 66.6832 37.2103C66.7877 37.4061 66.7672 37.9098 66.6832 38.1087H63.4175C63.4936 37.9763 63.4515 34.0428 63.4175 33.6637Z" fill="black"/>
<path d="M52.1462 33.6632C53.0208 33.5553 54.7206 33.6358 54.5158 34.8964C54.1627 34.9678 53.7835 34.9179 53.4256 34.8964C53.2857 34.2488 51.7967 34.4335 51.8782 35.1012C52.0716 35.555 53.5523 35.368 54.1264 35.7662C55.1546 36.4796 54.6524 37.9515 53.1413 38.1081C52.552 38.3722 50.1402 37.7909 50.7975 36.9229C51.7939 36.6102 53.1367 37.906 53.4157 36.8233C53.3015 36.3379 51.7801 36.4754 50.729 35.6218C50.9366 34.5584 50.5585 33.7717 52.1462 33.6632Z" fill="black"/>
<path d="M45.9073 33.6641H46.956C47.0028 33.7948 46.9944 36.6056 46.956 36.7394C47.1009 36.8302 47.1886 36.9567 47.2879 37.09C47.7915 37.3279 48.4092 37.2995 48.6415 36.7394C48.7064 36.4952 48.7683 33.9136 48.6415 33.6641C49.057 33.6681 49.4727 33.6649 49.8883 33.6641C50.0109 33.8852 49.9929 34.6755 49.8883 34.8973C50.0402 35.203 49.9079 36.4201 49.8562 36.7921C49.6076 38.5832 46.3207 38.7067 45.8046 37.0025C45.6943 36.6384 45.441 33.764 45.9073 33.6641Z" fill="black"/>
<path d="M79.8668 33.6633C80.2822 33.6122 80.7333 33.6551 81.1524 33.6633C81.3611 34.1671 80.9492 36.1011 81.2435 36.8572C81.4928 37.4979 82.5731 37.3255 82.804 36.7387C82.8547 36.5895 82.8536 33.8023 82.804 33.6633C83.2336 33.656 83.6641 33.6626 84.0939 33.6633C84.2228 33.899 84.1963 34.3396 84.0939 34.5798C84.2491 34.8839 84.1248 36.4297 84.0762 36.8282C83.8726 38.4974 80.6759 38.677 80.0417 37.3025C79.5156 36.1624 80.1497 34.5923 79.8668 33.6633Z" fill="black"/>
<path d="M14.7844 33.6641H15.9588C16.5896 34.9844 17.2627 36.9131 18.0148 38.109C17.5567 38.0916 17.1054 38.092 16.6473 38.109C16.5533 37.8126 16.4802 37.5123 16.4068 37.2106H15.6809H14.2639C14.1685 37.5203 13.9989 37.7848 13.9402 38.109H12.56C12.8483 37.5703 14.4176 33.7596 14.7844 33.6641ZM15.1497 34.8973C14.9872 35.429 14.7651 35.9285 14.5844 36.4526C14.8625 36.4529 15.1409 36.4563 15.4189 36.4526H15.9588C15.8368 36.0272 15.5846 35.1003 15.1497 34.8973Z" fill="black"/>
<path d="M70.8655 33.6644C71.2417 33.6243 71.6498 33.6598 72.0294 33.6644C72.3732 33.8923 74.0967 37.8658 74.0435 38.1094C73.5539 38.1212 73.0644 38.1144 72.5747 38.1094C72.6827 37.6184 72.2981 37.2322 71.8386 37.2109C71.3955 37.2666 70.9733 37.2426 70.5303 37.2109C70.5631 37.4968 70.3793 37.9315 70.1574 38.1094C69.6779 38.1829 69.1651 38.1331 68.6825 38.1094C69.0186 37.8657 70.8994 33.9577 70.8655 33.6644ZM71.4193 35.1734C71.3858 35.5204 71.1109 36.1886 70.8655 36.453C71.048 36.4531 71.2374 36.4641 71.4193 36.453H72.0294C71.9644 36.0429 71.7235 35.5805 71.5334 35.21L71.4193 35.1734Z" fill="black"/>
<path d="M34.378 33.6641H35.5876C35.4637 35.1036 35.6224 36.6053 35.5862 38.0539L35.5069 38.109H34.378C33.708 37.379 32.953 36.0023 32.2202 35.461V38.109H30.9889C30.9878 37.3152 30.8916 34.2589 31.0414 33.7093L31.1359 33.6641H32.2202C32.7625 34.2642 33.885 35.9283 34.378 36.2945V33.6641Z" fill="black"/>
<path d="M74.73 33.6641C75.5264 33.6321 77.102 33.5488 77.8219 33.7807C79.1906 34.2216 79.222 37.2346 78.2723 37.6606L78.2299 37.7658C77.5577 38.3148 75.6358 38.1139 74.73 38.1091C74.7747 38.0279 74.8163 34.319 74.73 33.6641ZM76.0447 34.5806C76.0861 34.7587 76.099 37.1048 76.0447 37.2106C76.3564 37.2201 77.2011 37.3328 77.2766 36.895C77.6772 36.6107 78.2367 34.3015 76.0447 34.5806Z" fill="black"/>
<path d="M49.5938 19.3498C49.5938 19.3498 50.646 19.3448 51.1317 19.3459L54.8019 19.3498C54.8019 19.3498 54.8144 20.1693 54.808 20.4833C54.8007 20.8392 54.8019 23.669 54.8019 23.669C54.8019 23.669 53.7783 23.6747 53.3938 23.6735L49.5938 23.669V19.3498Z" fill="black"/>
<path d="M42.18 19.3501C42.18 19.3501 43.2595 19.3451 43.7744 19.3458L47.2878 19.3501V23.6693H42.18V19.3501Z" fill="black"/>
<path d="M49.5938 25.584H54.8019V30.1559H49.5938V25.584Z" fill="#1694FE"/>
<path d="M42.18 25.584H47.2878V30.1559H42.18V25.584Z" fill="black"/>
<path d="M53.9738 9.18062C54.5968 8.96544 58.7418 4.57205 59.4978 3.75391C60.0153 4.13362 63.6265 7.70035 63.7487 7.98353C64.3429 8.30003 65.3954 9.44291 65.8429 9.98065C66.2084 10.2667 67.3208 11.2477 67.4994 11.6302C67.787 11.7728 69.6184 13.4955 69.6554 13.7213C71.9025 15.5586 74.0972 18.7044 76.4112 20.2468C76.5221 20.3251 78.3943 22.2047 78.4232 22.2719C78.766 22.5144 79.0688 22.8631 79.3686 23.1554L83.2475 26.9528C83.5457 27.2492 84.2024 27.7066 84.3035 28.113H78.9981C78.9662 28.0229 74.3441 23.3501 74.0428 23.1482C73.9407 23.3193 71.3103 25.8922 71.0868 26.0591C70.2468 25.1933 69.3814 24.351 68.5074 23.5178C68.2458 23.1449 66.494 21.3566 66.1813 21.1933C66.1275 20.9695 64.0583 19.0566 63.7487 18.7499C62.922 18.0717 62.2255 17.0439 61.3605 16.4347C61.1416 16.1055 59.1297 14.1254 58.7874 13.8683C58.0792 13.1625 57.3162 12.5018 56.6488 11.7587C55.7776 11.0101 54.862 9.79949 53.9738 9.18062ZM69.0627 18.3393C69.0504 18.3802 66.4478 20.9032 66.1813 21.1933C66.494 21.3566 68.2458 23.1449 68.5074 23.5178C68.8804 23.3622 71.3363 20.9354 71.4186 20.6297C71.3639 20.3136 69.4147 18.485 69.0627 18.3393ZM64.2067 13.7213C63.7838 14.2708 61.8906 15.9798 61.3605 16.4347C62.2255 17.0439 62.922 18.0717 63.7487 18.7499C63.8636 18.682 66.3784 16.1102 66.5092 15.9182C66.4481 15.6571 64.4959 13.8337 64.2067 13.7213ZM59.4978 8.96491C59.4259 9.23418 56.9258 11.6718 56.6488 11.7587C57.3162 12.5018 58.0792 13.1625 58.7874 13.8683C59.1873 13.7366 61.4853 11.4775 61.6248 11.1229C61.4625 10.8177 59.8111 9.15461 59.4978 8.96491Z" fill="#004092"/>
<path d="M37.4722 3.75391C39.0535 5.47266 41.1837 7.6221 42.932 9.18062C42.8661 9.48867 40.727 11.4846 40.3508 11.7587C39.6975 12.487 38.9403 13.1936 38.2271 13.8683C37.7654 14.39 36.133 16.0853 35.587 16.4347C34.9055 17.2616 34.0978 17.9971 33.332 18.7499C32.6756 19.3954 31.3859 20.4297 30.9883 21.1933C30.1894 21.7235 29.1626 22.7643 28.5705 23.5178C27.7984 24.1109 26.5879 25.2696 26.0379 26.0591C25.1175 25.0287 24.0046 24.1185 23.0131 23.1482C22.3277 23.7115 18.2616 27.5965 18.0148 28.113H12.56C14.6378 26.2488 16.5379 24.1782 18.5802 22.2719C19.188 21.5498 19.9486 20.9483 20.5852 20.2468C22.7201 18.2355 24.9927 15.7053 27.2202 13.8683C27.9266 13.0878 28.7379 12.4041 29.4503 11.6302C30.0223 11.0915 30.6 10.5542 31.1354 9.98065C31.839 9.2963 32.4925 8.51935 33.332 7.98353C33.901 7.11296 36.5931 4.55396 37.4722 3.75391ZM27.8459 18.3393C27.0757 19.0917 26.2737 19.8311 25.5549 20.6297C25.9902 20.9643 28.3416 23.1901 28.5705 23.5178C29.1626 22.7643 30.1894 21.7235 30.9883 21.1933C29.8669 20.3581 28.9009 19.0609 27.8459 18.3393ZM32.7346 13.7213C31.9344 14.4157 31.1464 15.1489 30.4219 15.9182C31.3592 16.8836 32.4538 17.7341 33.332 18.7499C34.0978 17.9971 34.9055 17.2616 35.587 16.4347C34.9489 15.693 33.5038 14.2384 32.7346 13.7213ZM37.4722 8.96491C36.6542 9.54148 36.0614 10.371 35.2773 10.9773C36.1871 12.0011 37.2735 12.8816 38.2271 13.8683C38.9403 13.1936 39.6975 12.487 40.3508 11.7587C39.545 10.9247 38.4015 9.63654 37.4722 8.96491Z" fill="#004092"/>
<path d="M63.7487 7.98438C64.0021 7.855 67.7286 4.14752 67.8239 3.92773C68.2761 4.16831 71.4482 7.32511 71.4187 7.56372C72.123 7.20595 75.0064 4.44281 75.1827 4.05653C75.4845 4.1996 78.0428 6.80409 78.489 7.23802L89.2722 17.7203C89.7793 18.2109 92.848 20.9664 92.928 21.2927H88.7651C88.288 20.8019 85.5696 17.9991 85.19 17.8289C85.107 18.0647 84.1123 19.021 83.8638 19.146C84.3527 19.3843 88.9516 23.9244 88.9911 24.1982C87.5642 24.2002 86.1357 24.2165 84.709 24.1982C84.6344 23.9198 80.9962 20.4032 80.5614 20.2477C80.1402 20.73 78.8686 21.9292 78.4232 22.2727C78.3944 22.2055 76.5222 20.326 76.4112 20.2477C74.0972 18.7052 71.9025 15.5594 69.6554 13.7222C69.6185 13.4964 67.7871 11.7737 67.4995 11.631C67.3208 11.2486 66.2085 10.2676 65.843 9.98151C65.3955 9.44377 64.343 8.30089 63.7487 7.98438ZM69.6554 13.7222C71.9025 15.5594 74.0972 18.7052 76.4112 20.2477C76.6968 20.1269 78.2456 18.4524 78.4232 18.1181L78.4251 18.0552C78.143 17.5789 77.6355 17.1668 77.2415 16.7772L74.9711 14.5637C70.7824 10.4502 72.9168 11.3081 69.6554 13.7222ZM67.8239 7.98438C67.7378 8.24528 66.1656 9.69947 65.843 9.98151C66.2085 10.2676 67.3208 11.2486 67.4995 11.631C67.9843 11.3832 69.3209 10.1053 69.5324 9.64386C69.3512 9.31602 68.1809 8.14623 67.8239 7.98438ZM81.8659 14.4706C81.2436 14.8422 80.8583 15.4897 80.3102 15.788C80.9525 16.0715 81.3762 16.7556 81.8659 17.2167C82.0756 17.0846 83.1617 16.0011 83.2837 15.788C83.2083 15.5842 82.11 14.4945 81.8659 14.4706ZM78.2718 11.1238C78.1685 11.4797 77.2835 12.2019 76.9303 12.3571C77.4479 12.7395 77.8892 13.3246 78.3689 13.7624C78.3855 13.7517 78.4134 13.7388 78.4232 13.7222C78.7744 13.3885 79.6519 12.694 79.8675 12.3571C79.6864 12.0921 78.7442 11.2154 78.4425 11.0932L78.2718 11.1238ZM75.1827 7.98438C75.0198 8.28527 73.9913 9.17555 73.6693 9.30338C73.935 9.55465 74.709 10.5475 74.9914 10.582C75.2733 10.478 76.204 9.51184 76.4015 9.24002L76.4112 9.18148C76.3814 8.81282 75.692 8.13229 75.3108 7.97177L75.1827 7.98438Z" fill="#B3B2B3"/>
<path d="M29.0822 3.92676C30.5253 5.01907 31.7601 6.77588 33.3324 7.98341C32.4929 8.51923 31.8393 9.29618 31.1357 9.98053C30.6003 10.5541 30.0227 11.0913 29.4506 11.6301C28.7382 12.4039 27.9269 13.0877 27.2205 13.8682C24.9931 15.7052 22.7205 18.2354 20.5856 20.2467C19.949 20.9482 19.1884 21.5497 18.5805 22.2718C17.9177 21.8204 17.065 20.8217 16.4071 20.2467C14.9748 21.4741 13.7002 22.9006 12.3302 24.1972H7.91984C8.57348 23.6162 9.18907 22.982 9.8133 22.3709L13.1179 19.1451L11.7665 17.8279C10.5128 18.9207 9.42656 20.2023 8.16771 21.2918C7.7207 21.3397 7.22723 21.3003 6.77568 21.2983L4.06999 21.2918C4.81865 20.6729 5.49445 19.9456 6.18557 19.2662L17.8623 7.87758C18.4523 7.30613 21.3021 4.18219 21.8338 4.10108C23.0153 4.89454 24.229 6.57889 25.5552 7.56274C26.3427 6.41365 28.0544 5.01057 29.0822 3.92676ZM18.4417 18.1171C18.9927 18.6452 20.1937 19.671 20.5856 20.2467C22.7205 18.2354 24.9931 15.7052 27.2205 13.8682C26.5608 13.0898 25.8293 12.3988 25.0311 11.7586C24.3166 12.3645 23.6639 13.0523 22.9996 13.7091L20.3244 16.303C19.7025 16.9084 19.0938 17.5435 18.4417 18.1171ZM29.0822 7.98341C28.5367 8.51123 27.8883 9.04244 27.4036 9.61987C28.0091 10.3104 28.7374 11.0493 29.4506 11.6301C30.0227 11.0913 30.6003 10.5541 31.1357 9.98053C30.4207 9.34547 29.7964 8.6211 29.0822 7.98341ZM15.15 14.4697C14.6283 14.9257 14.1288 15.3872 13.6857 15.9181C13.9223 16.1216 14.9598 17.1952 15.15 17.2157C15.624 16.7429 16.0727 16.2778 16.6477 15.9181C16.4116 15.6923 15.3157 14.5175 15.15 14.4697ZM18.5805 10.9771L17.1985 12.3561C17.6296 12.8398 18.1156 13.269 18.5805 13.7212C19.0812 13.2722 19.5836 12.8222 20.0676 12.3561C19.6965 12.0257 18.9545 11.1671 18.5805 10.9771ZM21.7542 7.98341C21.4397 8.32602 21.1083 8.64007 20.7751 8.96479C21.1869 9.35716 21.6069 9.90727 22.0944 10.2016C22.403 9.90418 22.7139 9.6086 23.0134 9.3024C22.6941 8.98365 22.0983 8.17239 21.7542 7.98341Z" fill="#B3B2B3"/>
<path d="M48.456 3.75391C48.8119 3.94649 53.8794 8.9927 53.974 9.18062C54.8623 9.79949 55.7778 11.0101 56.6491 11.7587C57.3164 12.5018 58.0794 13.1625 58.7876 13.8683C59.13 14.1254 61.1419 16.1055 61.3608 16.4347C62.2258 17.0439 62.9223 18.0717 63.7489 18.7499C64.0586 19.0566 66.1277 20.9694 66.1815 21.1932C66.4942 21.3566 68.246 23.1449 68.5076 23.5178C69.3816 24.351 70.247 25.1933 71.0871 26.0591C71.6065 26.4107 76.3247 31.1405 76.4114 31.3821C75.8321 31.4336 75.2015 31.3862 74.6171 31.3856L70.8651 31.3821C70.7473 31.104 67.1867 27.7548 66.6305 27.2031L53.582 14.2628C52.7593 13.4549 49.1259 9.62452 48.456 9.30252C48.4117 9.47546 45.3909 12.3858 45.0354 12.7316L28.4272 29.0827C27.6409 29.8532 26.8712 30.6599 26.0382 31.3821H20.4413C21.7737 30.1325 24.6812 26.8978 26.0382 26.0591C26.5883 25.2696 27.7987 24.1109 28.5709 23.5178C29.163 22.7643 30.1897 21.7235 30.9887 21.1932C31.3863 20.4297 32.676 19.3954 33.3323 18.7499C34.0981 17.9971 34.9058 17.2616 35.5874 16.4347C36.1334 16.0853 37.7658 14.39 38.2275 13.8683C38.9407 13.1936 39.6978 12.487 40.3511 11.7587C40.7274 11.4846 42.8664 9.48867 42.9324 9.18062C43.4106 8.97599 48.4012 3.98065 48.456 3.75391Z" fill="black"/>
</svg>
